<svg width="210" height="210" viewBox="0 0 210 210" fill="none" xmlns="http://www.w3.org/2000/svg">
<circle cx="104.241" cy="105.071" r="89.9442" fill="#E5E5E5" stroke="#C2BFBF" stroke-width="4"/>
<rect x="12.2969" y="98.7817" width="183.888" height="12.5787" fill="#C2BFBF"/>
<circle cx="104.241" cy="105.071" r="26.6548" fill="#C2BFBF"/>
<circle cx="104.241" cy="105.071" r="14.7741" fill="#C0C0C0" stroke="#EAEAEA"/>
<circle cx="104.241" cy="105.071" r="12.5787" fill="#E5E5E5" stroke="#C2BFBF" stroke-width="0.598985"/>
<path d="M48.6639 70.3005V53.0205H53.4399L61.1199 68.2845L59.9439 68.5725V53.0205H63.5439V70.3005H58.7679L51.0879 55.0365L52.2639 54.7485V70.3005H48.6639ZM74.3133 70.5405C73.0333 70.5405 71.8493 70.3245 70.7613 69.8925C69.6893 69.4605 68.7533 68.8525 67.9533 68.0685C67.1693 67.2685 66.5533 66.3245 66.1053 65.2365C65.6733 64.1325 65.4573 62.9165 65.4573 61.5885C65.4573 59.8285 65.8333 58.2925 66.5853 56.9805C67.3373 55.6525 68.3773 54.6205 69.7053 53.8845C71.0493 53.1485 72.5773 52.7805 74.2893 52.7805C76.0333 52.7805 77.5693 53.1485 78.8973 53.8845C80.2253 54.6205 81.2653 55.6525 82.0173 56.9805C82.7853 58.3085 83.1693 59.8525 83.1693 61.6125C83.1693 62.9245 82.9453 64.1325 82.4973 65.2365C82.0653 66.3245 81.4493 67.2685 80.6493 68.0685C79.8653 68.8525 78.9293 69.4605 77.8413 69.8925C76.7693 70.3245 75.5933 70.5405 74.3133 70.5405ZM74.2893 67.6125C75.2973 67.6125 76.1853 67.3565 76.9533 66.8445C77.7213 66.3325 78.3213 65.6285 78.7533 64.7325C79.2013 63.8205 79.4253 62.7645 79.4253 61.5645C79.4253 60.3805 79.2093 59.3485 78.7773 58.4685C78.3453 57.5885 77.7453 56.9085 76.9773 56.4285C76.2093 55.9485 75.3133 55.7085 74.2893 55.7085C73.2813 55.7085 72.3933 55.9485 71.6253 56.4285C70.8573 56.9085 70.2573 57.5885 69.8253 58.4685C69.4093 59.3325 69.2013 60.3645 69.2013 61.5645C69.2013 62.7805 69.4173 63.8445 69.8493 64.7565C70.2813 65.6525 70.8813 66.3565 71.6493 66.8685C72.4173 67.3645 73.2973 67.6125 74.2893 67.6125ZM89.6561 70.3005V53.0205H93.3521V70.3005H89.6561ZM95.7498 70.3005V53.0205H101.51L106.31 69.6765H104.222L109.022 53.0205H114.806V70.3005H111.158V54.0525H111.782L107.102 70.3005H103.286L98.6538 54.1965H99.2538V70.3005H95.7498ZM116.571 70.3005L122.763 53.0205H125.931L120.243 70.3005H116.571ZM129.243 70.3005L123.579 53.0205H126.891L133.083 70.3005H129.243ZM119.835 63.6045H129.531V66.4845H119.835V63.6045ZM142.239 70.5405C140.367 70.5405 138.759 70.1725 137.415 69.4365C136.071 68.7005 135.031 67.6685 134.295 66.3405C133.575 65.0125 133.215 63.4605 133.215 61.6845C133.215 59.9245 133.583 58.3805 134.319 57.0525C135.055 55.7085 136.071 54.6605 137.367 53.9085C138.679 53.1565 140.199 52.7805 141.927 52.7805C143.351 52.7805 144.623 53.0365 145.743 53.5485C146.879 54.0605 147.791 54.7645 148.479 55.6605C149.183 56.5405 149.599 57.5645 149.727 58.7325H146.031C145.871 57.7885 145.423 57.0525 144.687 56.5245C143.967 55.9805 143.063 55.7085 141.975 55.7085C140.967 55.7085 140.087 55.9485 139.335 56.4285C138.583 56.8925 137.999 57.5645 137.583 58.4445C137.167 59.3245 136.959 60.3805 136.959 61.6125C136.959 62.8925 137.167 63.9885 137.583 64.9005C137.999 65.7965 138.607 66.4845 139.407 66.9645C140.223 67.4285 141.223 67.6605 142.407 67.6605C143.367 67.6605 144.183 67.5405 144.855 67.3005C145.527 67.0605 146.039 66.7245 146.391 66.2925L149.895 67.6845C148.967 68.6125 147.887 69.3245 146.655 69.8205C145.439 70.3005 143.967 70.5405 142.239 70.5405ZM146.199 67.6845V62.9325L146.943 63.6765H142.383V60.8445H149.895V67.6845H146.199ZM152 70.3005V53.0205H155.696V70.3005H152ZM153.728 70.3005V67.4685H164.864V70.3005H153.728ZM153.728 62.8605V60.0765H164.024V62.8605H153.728ZM153.728 55.8525V53.0205H164.576V55.8525H153.728Z" fill="#B2B2B2"/>
</svg>
